<svg width="6706" height="889" xmlns="http://www.w3.org/2000/svg" xmlns:xlink="http://www.w3.org/1999/xlink" xml:space="preserve" overflow="hidden"><g transform="translate(-696 -559)"><g><path d="M715 851.99C715 645.299 759.357 601 966.324 601L1220.68 601C1427.64 601 1472 645.299 1472 851.99L1472 1106.01C1472 1312.7 1427.64 1357 1220.68 1357L966.324 1357C759.364 1357 715 1312.7 715 1106.01L715 851.99" stroke="#B7E0F7" stroke-width="27.5" stroke-linecap="butt" stroke-linejoin="miter" stroke-miterlimit="8" stroke-opacity="1" fill="#E4F4FC" fill-rule="evenodd" fill-opacity="1"/><text fill="#000000" fill-opacity="1" font-family="Smiley Sans Oblique,Smiley Sans Oblique_MSFontService,sans-serif" font-style="oblique" font-variant="normal" font-weight="400" font-stretch="normal" font-size="165" text-anchor="start" direction="ltr" writing-mode="lr-tb" unicode-bidi="normal" text-decoration="none" transform="matrix(1 0 0 1 961.803 1040)">节点</text><path d="M3802 851.99C3802 645.299 3846.3 601 4052.99 601L4307.01 601C4513.69 601 4558 645.299 4558 851.99L4558 1106.01C4558 1312.7 4513.7 1357 4307.01 1357L4052.99 1357C3846.31 1357 3802 1312.7 3802 1106.01L3802 851.99" stroke="#FBCCC7" stroke-width="27.5" stroke-linecap="butt" stroke-linejoin="miter" stroke-miterlimit="8" stroke-opacity="1" fill="#FBDFDC" fill-rule="evenodd" fill-opacity="1"/><text fill="#000000" fill-opacity="1" font-family="Smiley Sans Oblique,Smiley Sans Oblique_MSFontService,sans-serif" font-style="oblique" font-variant="normal" font-weight="400" font-stretch="normal" font-size="165" text-anchor="start" direction="ltr" writing-mode="lr-tb" unicode-bidi="normal" text-decoration="none" transform="matrix(1 0 0 1 3916.45 941)">系统状态</text><text fill="#000000" fill-opacity="1" font-family="Smiley Sans Oblique,Smiley Sans Oblique_MSFontService,sans-serif" font-style="oblique" font-variant="normal" font-weight="400" font-stretch="normal" font-size="165" text-anchor="start" direction="ltr" writing-mode="lr-tb" unicode-bidi="normal" text-decoration="none" transform="matrix(1 0 0 1 3982.34 1139)">管理器</text><path d="M1472 838.25 3774.75 838.251 3774.75 865.751 1472 865.75ZM3699.17 791.999 3802.03 852.001 3699.17 912.003C3692.61 915.829 3684.19 913.613 3680.37 907.054 3676.54 900.494 3678.76 892.075 3685.32 888.249L3685.32 888.249 3767.82 840.124 3767.82 863.878 3685.32 815.753C3678.76 811.926 3676.54 803.507 3680.37 796.947 3684.19 790.388 3692.61 788.172 3699.17 791.999Z" fill="#A6A6A6" fill-rule="nonzero" fill-opacity="1"/><path d="M2.12976e-06-13.75 2302.75-13.7496 2302.75 13.7504-2.12976e-06 13.75ZM2227.17-60.0016 2330.03 0.0003595 2227.17 60.0023C2220.61 63.8287 2212.19 61.613 2208.37 55.0536 2204.54 48.4941 2206.76 40.0747 2213.32 36.2484L2213.32 36.2484 2295.82-11.8766 2295.82 11.8773 2213.32-36.2477C2206.76-40.074 2204.54-48.4934 2208.37-55.0529 2212.19-61.6124 2220.61-63.828 2227.17-60.0016Z" fill="#A6A6A6" fill-rule="nonzero" fill-opacity="1" transform="matrix(-1 0 0 1 3801.97 1106)"/><text fill="#000000" fill-opacity="1" font-family="Smiley Sans Oblique,Smiley Sans Oblique_MSFontService,sans-serif" font-style="oblique" font-variant="normal" font-weight="400" font-stretch="normal" font-size="147" text-anchor="start" direction="ltr" writing-mode="lr-tb" unicode-bidi="normal" text-decoration="none" transform="matrix(1 0 0 1 2193.73 1033)">「节点启动」</text><text fill="#000000" fill-opacity="1" font-family="Smiley Sans Oblique,Smiley Sans Oblique_MSFontService,sans-serif" font-style="oblique" font-variant="normal" font-weight="400" font-stretch="normal" font-size="147" text-anchor="start" direction="ltr" writing-mode="lr-tb" unicode-bidi="normal" text-decoration="none" transform="matrix(1 0 0 1 2311.17 746)">注册节点</text><text fill="#000000" fill-opacity="1" font-family="Smiley Sans Oblique,Smiley Sans Oblique_MSFontService,sans-serif" font-style="oblique" font-variant="normal" font-weight="400" font-stretch="normal" font-size="147" text-anchor="start" direction="ltr" writing-mode="lr-tb" unicode-bidi="normal" text-decoration="none" transform="matrix(1 0 0 1 2311.17 1321)">运行许可</text><path d="M6629 851.99C6629 645.299 6673.3 601 6879.99 601L7134.01 601C7340.69 601 7385 645.299 7385 851.99L7385 1106.01C7385 1312.7 7340.7 1357 7134.01 1357L6879.99 1357C6673.31 1357 6629 1312.7 6629 1106.01L6629 851.99" stroke="#B7E0F7" stroke-width="27.5" stroke-linecap="butt" stroke-linejoin="miter" stroke-miterlimit="8" stroke-opacity="1" fill="#E4F4FC" fill-rule="evenodd" fill-opacity="1"/><text fill="#000000" fill-opacity="1" font-family="Smiley Sans Oblique,Smiley Sans Oblique_MSFontService,sans-serif" font-style="oblique" font-variant="normal" font-weight="400" font-stretch="normal" font-size="165" text-anchor="start" direction="ltr" writing-mode="lr-tb" unicode-bidi="normal" text-decoration="none" transform="matrix(1 0 0 1 6875.4 1040)">节点</text><path d="M4558 1092.25 4640.5 1092.25 4640.5 1119.75 4558 1119.75ZM4668 1092.25 4750.5 1092.25 4750.5 1119.75 4668 1119.75ZM4778 1092.25 4860.5 1092.25 4860.5 1119.75 4778 1119.75ZM4888 1092.25 4970.5 1092.25 4970.5 1119.75 4888 1119.75ZM4998 1092.25 5080.5 1092.25 5080.5 1119.75 4998 1119.75ZM5108 1092.25 5190.5 1092.25 5190.5 1119.75 5108 1119.75ZM5218 1092.25 5300.5 1092.25 5300.5 1119.75 5218 1119.75ZM5328 1092.25 5410.5 1092.25 5410.5 1119.75 5328 1119.75ZM5438 1092.25 5520.5 1092.25 5520.5 1119.75 5438 1119.75ZM5548 1092.25 5630.5 1092.25 5630.5 1119.75 5548 1119.75ZM5658 1092.25 5740.5 1092.25 5740.5 1119.75 5658 1119.75ZM5768 1092.25 5850.5 1092.25 5850.5 1119.75 5768 1119.75ZM5878 1092.25 5960.5 1092.25 5960.5 1119.75 5878 1119.75ZM5988 1092.25 6070.5 1092.25 6070.5 1119.75 5988 1119.75ZM6098 1092.25 6180.5 1092.25 6180.5 1119.75 6098 1119.75ZM6208 1092.25 6290.5 1092.25 6290.5 1119.75 6208 1119.75ZM6318 1092.25 6400.5 1092.25 6400.5 1119.75 6318 1119.75ZM6428 1092.25 6510.5 1092.25 6510.5 1119.75 6428 1119.75ZM6538 1092.25 6601.5 1092.25 6601.5 1119.75 6538 1119.75ZM6525.93 1046 6628.79 1106 6525.93 1166C6519.37 1169.83 6510.95 1167.61 6507.12 1161.05 6503.3 1154.49 6505.51 1146.07 6512.07 1142.25L6512.07 1142.25 6594.57 1094.12 6594.57 1117.88 6512.07 1069.75C6505.51 1065.93 6503.3 1057.51 6507.12 1050.95 6510.95 1044.39 6519.37 1042.17 6525.93 1046Z" fill="#A6A6A6" fill-rule="nonzero" fill-opacity="1"/><path d="M2.39639e-06-13.75 82.5-13.75 82.5 13.75-2.39639e-06 13.75ZM110-13.75 192.5-13.75 192.5 13.75 110 13.75ZM220-13.75 302.5-13.7499 302.5 13.7501 220 13.75ZM330-13.7499 412.5-13.7499 412.5 13.7501 330 13.7501ZM440-13.7499 522.5-13.7499 522.5 13.7501 440 13.7501ZM550-13.7499 632.5-13.7499 632.5 13.7501 550 13.7501ZM660-13.7499 742.5-13.7499 742.5 13.7501 660 13.7501ZM770-13.7499 852.5-13.7499 852.5 13.7501 770 13.7501ZM880-13.7498 962.5-13.7498 962.5 13.7502 880 13.7502ZM990-13.7498 1072.5-13.7498 1072.5 13.7502 990 13.7502ZM1100-13.7498 1182.5-13.7498 1182.5 13.7502 1100 13.7502ZM1210-13.7498 1292.5-13.7498 1292.5 13.7502 1210 13.7502ZM1320-13.7498 1402.5-13.7498 1402.5 13.7502 1320 13.7502ZM1430-13.7498 1512.5-13.7497 1512.5 13.7503 1430 13.7502ZM1540-13.7497 1622.5-13.7497 1622.5 13.7503 1540 13.7503ZM1650-13.7497 1732.5-13.7497 1732.5 13.7503 1650 13.7503ZM1760-13.7497 1842.5-13.7497 1842.5 13.7503 1760 13.7503ZM1870-13.7497 1952.5-13.7497 1952.5 13.7503 1870 13.7503ZM1980-13.7497 2043.5-13.7496 2043.5 13.7504 1980 13.7503ZM1967.93-60.0016 2070.79 0.000358972 1967.93 60.0023C1961.37 63.8287 1952.95 61.613 1949.12 55.0536 1945.3 48.4941 1947.51 40.0747 1954.07 36.2484L1954.07 36.2484 2036.57-11.8766 2036.57 11.8773 1954.07-36.2477C1947.51-40.074 1945.3-48.4934 1949.12-55.0529 1952.95-61.6124 1961.37-63.828 1967.93-60.0016Z" fill="#A6A6A6" fill-rule="nonzero" fill-opacity="1" transform="matrix(-1 0 0 1 6628.73 852)"/><text fill="#000000" fill-opacity="1" font-family="Smiley Sans Oblique,Smiley Sans Oblique_MSFontService,sans-serif" font-style="oblique" font-variant="normal" font-weight="400" font-stretch="normal" font-size="147" text-anchor="start" direction="ltr" writing-mode="lr-tb" unicode-bidi="normal" text-decoration="none" transform="matrix(1 0 0 1 5281.81 746)">心跳发送</text><text fill="#000000" fill-opacity="1" font-family="Smiley Sans Oblique,Smiley Sans Oblique_MSFontService,sans-serif" font-style="oblique" font-variant="normal" font-weight="400" font-stretch="normal" font-size="147" text-anchor="start" direction="ltr" writing-mode="lr-tb" unicode-bidi="normal" text-decoration="none" transform="matrix(1 0 0 1 5281.81 1321)">系统状态</text><text fill="#000000" fill-opacity="1" font-family="Smiley Sans Oblique,Smiley Sans Oblique_MSFontService,sans-serif" font-style="oblique" font-variant="normal" font-weight="400" font-stretch="normal" font-size="147" text-anchor="start" direction="ltr" writing-mode="lr-tb" unicode-bidi="normal" text-decoration="none" transform="matrix(1 0 0 1 5164.37 1033)">「节点运行」</text></g></g></svg>